<?xml version="1.0" encoding="UTF-8"?>
<svg version="1.1" xmlns="http://www.w3.org/2000/svg" width="800" height="389">
<path d="M0 0 C0.88461914 0.01401855 1.76923828 0.02803711 2.68066406 0.04248047 C47.10833197 0.88980327 92.02494094 12.9761137 131.12207031 33.99316406 C133.10036946 35.05381223 135.09283474 36.08466122 137.0859375 37.1171875 C146.41446334 42.0409881 155.20503568 47.64983343 163.9375 53.5625 C164.96738037 54.25851318 165.99726074 54.95452637 167.05834961 55.67163086 C191.08886701 72.17773402 191.08886701 72.17773402 195 80 C195.57173202 83.50185865 195.55458885 85.98847415 193.82421875 89.14453125 C189.14525513 95.52087546 183.26211544 100.25979454 177 105 C176.33983887 105.50660156 175.67967773 106.01320313 174.99951172 106.53515625 C159.09365222 118.70459522 142.48958644 129.74984154 124.8125 139.1875 C123.98830566 139.63311279 123.16411133 140.07872559 122.31494141 140.5378418 C114.65959236 144.50759663 105.9530625 148.48996173 97.28125 146.0078125 C92.78023895 144.01935214 88.68123814 141.258549 85 138 C85 137.34 85 136.68 85 136 C84.42378906 135.7525 83.84757812 135.505 83.25390625 135.25 C66.93169476 126.19782032 57.27446505 100.09367202 52.25 83.375 C47.70402232 67.35348115 46.15045399 50.52736688 49 34 C45.56308878 33.51654934 42.12537306 33.03905881 38.6875 32.5625 C37.73037109 32.42779297 36.77324219 32.29308594 35.78710938 32.15429688 C32.86022028 31.75024821 29.93160535 31.36821737 27 31 C26.19763916 30.89776123 25.39527832 30.79552246 24.56860352 30.69018555 C-49.65558196 22.59206385 -125.34705913 43.01060466 -193 72 C-193.92232422 72.39429199 -194.84464844 72.78858398 -195.79492188 73.19482422 C-207.34755991 78.17111668 -218.49582182 83.74370135 -229.56835938 89.70410156 C-232.03949911 91.02105033 -234.52432144 92.30758135 -237.015625 93.5859375 C-265.5573228 108.25436734 -293.10895679 124.88533181 -318.69970703 144.2734375 C-321.08275502 146.06211457 -323.48816962 147.81609645 -325.90234375 149.5625 C-335.12086658 156.24040597 -343.93156124 163.16631219 -352.47705078 170.68310547 C-354.74580182 172.644895 -357.09265132 174.50531889 -359.4375 176.375 C-365.41793337 181.22304362 -370.96836196 186.50356492 -376.56640625 191.78125 C-379.62438774 194.66089718 -382.75182795 197.44164007 -385.93359375 200.18359375 C-388.72715295 202.63917982 -391.45717034 205.16218485 -394.1875 207.6875 C-395.01894531 208.45598267 -395.01894531 208.45598267 -395.8671875 209.23999023 C-398.69882224 211.8604729 -401.52336981 214.48823052 -404.33984375 217.125 C-423.47767442 235 -423.47767442 235 -428 235 C-427.4440627 231.34014593 -426.54269293 228.88932588 -424.4453125 225.84765625 C-423.65495605 224.69317993 -423.65495605 224.69317993 -422.84863281 223.51538086 C-422.27983398 222.70593018 -421.71103516 221.89647949 -421.125 221.0625 C-420.24859863 219.80095093 -420.24859863 219.80095093 -419.35449219 218.51391602 C-412.22772778 208.34290567 -404.69682463 198.60482982 -396.265625 189.4765625 C-395.01890713 188.1137709 -393.78017958 186.74291931 -392.57983398 185.33911133 C-387.67859912 179.61158653 -382.4225274 174.26978998 -377.0847168 168.9543457 C-375.56508332 167.4400742 -374.05087483 165.9205257 -372.53710938 164.40039062 C-367.19758085 159.05688124 -361.7688876 153.88248625 -356 149 C-354.99030898 148.12305909 -353.98115839 147.24549539 -352.97265625 146.3671875 C-344.94157256 139.48956147 -336.6345293 133.04162299 -328.19824219 126.67041016 C-326.00882295 125.00670442 -323.83449201 123.32510303 -321.6640625 121.63671875 C-313.36074601 115.18938221 -304.93059106 109.11985209 -296.11816406 103.39111328 C-293.72855149 101.82172503 -291.35978602 100.22349373 -288.9921875 98.62109375 C-278.95419697 91.83747104 -268.85032549 85.30896274 -258.31835938 79.31884766 C-255.75428105 77.86021759 -253.19772347 76.38879804 -250.640625 74.91796875 C-237.27232487 67.26157868 -223.75387904 59.94026704 -210 53 C-208.89414551 52.4416748 -207.78829102 51.88334961 -206.64892578 51.30810547 C-188.46415711 42.18899754 -170.0020863 34.25111963 -151 27 C-150.0095166 26.61618164 -149.0190332 26.23236328 -147.99853516 25.83691406 C-100.53119331 7.48763551 -50.81494526 -1.02599333 0 0 Z M54 34 C54.49779007 41.93940356 55.50375902 49.55305821 57.25 57.3125 C57.58596191 58.81224365 57.58596191 58.81224365 57.92871094 60.34228516 C63.99324107 86.72256594 76.05640153 107.73722344 96 126 C96.66128906 126.61488281 97.32257812 127.22976562 98.00390625 127.86328125 C100.74612518 129.42489712 101.99025959 128.80374683 105 128 C108.70386506 126.41076484 112.24537713 124.49891233 115.8125 122.625 C116.83843262 122.08625244 117.86436523 121.54750488 118.92138672 120.99243164 C132.89584786 113.52430298 145.19088011 104.51804099 157 94 C157.5038623 93.55253418 158.00772461 93.10506836 158.52685547 92.64404297 C161.36857391 90.11488581 164.19230741 87.56685214 167 85 C165.49076742 80.78752171 162.4800404 78.89990759 158.875 76.5625 C158.22684326 76.13783447 157.57868652 75.71316895 156.91088867 75.27563477 C125.10553624 54.90369833 90.78383348 42.03999814 54 34 Z " fill="#101010" transform="translate(591,98)"/>
<path d="M0 0 C0.84022705 0.29527588 1.6804541 0.59055176 2.54614258 0.89477539 C50.10747121 16.73477649 99.91451925 27.14819521 149.73364258 32.39477539 C150.86197006 32.51435608 150.86197006 32.51435608 152.01309204 32.63635254 C171.12107207 34.62404854 190.21799691 35.22570314 209.42114258 35.20727539 C210.3984433 35.20733582 211.37574402 35.20739624 212.38265991 35.2074585 C232.49601837 35.18982905 252.38673994 34.20969624 272.31958008 31.38696289 C275.03970757 31.05830995 277.62321944 30.94806018 280.35864258 31.01977539 C280.35864258 32.33977539 280.35864258 33.65977539 280.35864258 35.01977539 C278.04223633 37.06274414 278.04223633 37.06274414 274.79614258 39.20727539 C274.21695068 39.59093262 273.63775879 39.97458984 273.04101562 40.36987305 C271.15804887 41.60476176 269.26019631 42.81373716 267.35864258 44.01977539 C266.7228125 44.43018066 266.08698242 44.84058594 265.43188477 45.26342773 C263.52174016 46.49082405 261.59969127 47.69653822 259.67114258 48.89477539 C259.09098389 49.26368896 258.5108252 49.63260254 257.91308594 50.01269531 C246.99735049 56.62170735 235.01976673 56.92555048 222.60864258 57.70727539 C221.17619705 57.8010849 221.17619705 57.8010849 219.71481323 57.89678955 C184.81774206 60.13988686 150.12710919 59.74092352 115.35864258 56.01977539 C114.00449149 55.8790005 112.65032506 55.73837303 111.29614258 55.59790039 C62.44275322 50.40482357 3.19343709 42.58809348 -40.64135742 19.01977539 C-40.50463867 17.28540039 -40.50463867 17.28540039 -39.64135742 15.01977539 C-37.12182617 12.94165039 -37.12182617 12.94165039 -33.82885742 10.76977539 C-32.64129686 9.98471074 -31.45379826 9.19955237 -30.26635742 8.41430664 C-29.66178711 8.01937012 -29.0572168 7.62443359 -28.43432617 7.2175293 C-26.71896133 6.071617 -25.05293966 4.87869606 -23.39135742 3.65649414 C-21.87541992 2.56788086 -21.87541992 2.56788086 -20.32885742 1.45727539 C-18.9734082 0.4653418 -18.9734082 0.4653418 -17.59057617 -0.54663086 C-11.51081434 -3.5019588 -6.08851056 -2.07549913 0 0 Z " fill="#0E0E0E" transform="translate(326.641357421875,220.980224609375)"/>
<path d="M0 0 C9.23143065 1.51627363 18.56348194 10.35876669 26 15.8125 C45.63632876 30.17959149 66.15268979 43.468007 87 56 C88.28052246 56.7731958 88.28052246 56.7731958 89.58691406 57.56201172 C125.80045775 79.37990143 163.16180945 99.27127931 202 116 C203.1338916 116.48887695 204.2677832 116.97775391 205.43603516 117.48144531 C206.55671387 117.96452148 207.67739258 118.44759766 208.83203125 118.9453125 C209.90598145 119.40929443 210.97993164 119.87327637 212.08642578 120.35131836 C214.09657314 121.21744468 216.10913824 122.07798962 218.12451172 122.93188477 C219.00510254 123.30885498 219.88569336 123.6858252 220.79296875 124.07421875 C221.94575317 124.56281372 221.94575317 124.56281372 223.12182617 125.0612793 C225 126 225 126 227 128 C228.65968919 128.36649787 230.32784226 128.69540621 232 129 C233.70666146 129.57990757 235.40074664 130.19783459 237.08203125 130.84765625 C238.01337891 131.20537109 238.94472656 131.56308594 239.90429688 131.93164062 C240.86400391 132.30482422 241.82371094 132.67800781 242.8125 133.0625 C244.28106445 133.62807617 244.28106445 133.62807617 245.77929688 134.20507812 C248.1876001 135.13315595 250.59441614 136.06490116 253 137 C251.51119118 140.69128272 249.49172755 142.46271934 246.3515625 144.85546875 C245.42859375 145.55994141 244.505625 146.26441406 243.5546875 146.99023438 C242.58789062 147.71533203 241.62109375 148.44042969 240.625 149.1875 C239.6659375 149.92419922 238.706875 150.66089844 237.71875 151.41992188 C229.37737758 157.73403874 229.37737758 157.73403874 226 158 C223.68847656 157.23071289 223.68847656 157.23071289 221.140625 155.97265625 C220.18800781 155.50923828 219.23539063 155.04582031 218.25390625 154.56835938 C217.26261719 154.07142578 216.27132812 153.57449219 215.25 153.0625 C213.83267578 152.36930664 213.83267578 152.36930664 212.38671875 151.66210938 C209.25016187 150.12306648 206.12453866 148.56329392 203 147 C201.74071169 146.37209183 200.48135 145.74433082 199.22192383 145.11669922 C195.14506725 143.08353607 191.07183276 141.04320334 187 139 C186.34694885 138.67250763 185.69389771 138.34501526 185.02105713 138.00759888 C166.2309737 128.57495937 147.85498051 118.73400017 129.90478516 107.7734375 C127.22844395 106.13947023 124.5439758 104.52009356 121.85546875 102.90625 C113.02989652 97.5902567 104.37287035 92.06189646 95.85644531 86.26367188 C93.96761228 84.97795386 92.07371032 83.699932 90.1796875 82.421875 C75.66378496 72.58015475 61.39516237 62.33125517 48 51 C47.00226563 50.175 46.00453125 49.35 44.9765625 48.5 C28.45404231 34.78681352 11.90329781 20.0459873 0 2 C0 1.34 0 0.68 0 0 Z " fill="#121212" transform="translate(26,68)"/>
<path d="M0 0 C-0.42608333 7.38544438 -2.9432523 13.31498803 -6 20 C-6.38285156 20.87140625 -6.76570312 21.7428125 -7.16015625 22.640625 C-10.21375551 29.22397798 -14.29366957 34.50928116 -19 40 C-19.60585938 40.75152344 -20.21171875 41.50304687 -20.8359375 42.27734375 C-43.12402854 69.03245725 -81.5971546 81.77032022 -115.16943359 84.9855957 C-119.44381607 85.36006231 -123.71969976 85.70073785 -128 86 C-128.66 85.01 -129.32 84.02 -130 83 C-122.21692313 78.97679297 -114.33570988 75.21632783 -106.36987305 71.5690918 C-78.85585972 58.9497691 -51.95694869 45.73036635 -29.0625 25.5625 C-26 23 -26 23 -24 23 C-24 22.34 -24 21.68 -24 21 C-22.70703125 19.765625 -22.70703125 19.765625 -20.8125 18.25 C-15.90519871 14.12540447 -11.70839095 9.42723081 -7.48168945 4.62402344 C-6.67671021 3.72925293 -6.67671021 3.72925293 -5.85546875 2.81640625 C-5.13846802 2.00345093 -5.13846802 2.00345093 -4.40698242 1.17407227 C-3 0 -3 0 0 0 Z " fill="#1B1B1B" transform="translate(648,221)"/>
<path d="M0 0 C0 0.66 0 1.32 0 2 C-3.76820947 2.68207811 -7.53989 3.3427354 -11.3125 4 C-12.36501953 4.19078125 -13.41753906 4.3815625 -14.50195312 4.578125 C-17.6622847 5.12267444 -20.8198942 5.58712029 -24 6 C-24.84691406 6.11593506 -25.69382812 6.23187012 -26.56640625 6.35131836 C-35.43262838 6.97171298 -43.50130453 3.49304865 -51.69924927 0.5296936 C-56.2421993 -1.11242954 -60.80407348 -2.70057769 -65.36328125 -4.296875 C-66.26954758 -4.61597336 -67.1758139 -4.93507172 -68.10954285 -5.26383972 C-77.35512284 -8.50717924 -86.68763107 -11.41275736 -96.06591797 -14.24584961 C-101.79781248 -15.982122 -107.42218957 -17.8162027 -113 -20 C-113 -20.99 -113 -21.98 -113 -23 C-76.93687862 -29.12674576 -31.10986922 -19.23420486 0 0 Z " fill="#1A1A1A" transform="translate(542,94)"/>
<path d="M0 0 C-1 3 -1 3 -4.41015625 4.9453125 C-5.95431642 5.68584267 -7.50575563 6.41130362 -9.0625 7.125 C-9.89144775 7.51026855 -10.72039551 7.89553711 -11.57446289 8.29248047 C-18.59600573 11.48943811 -25.73354459 14.36682982 -32.9375 17.125 C-33.97334229 17.52734863 -35.00918457 17.92969727 -36.07641602 18.34423828 C-37.05022217 18.70759277 -38.02402832 19.07094727 -39.02734375 19.4453125 C-39.89093506 19.77031738 -40.75452637 20.09532227 -41.64428711 20.43017578 C-44.19314415 21.04671971 -45.55539464 20.86421516 -48 20 C-47.338056 16.27546176 -45.69037455 13.55729746 -43.6875 10.375 C-43.09324219 9.41335937 -42.49898437 8.45171875 -41.88671875 7.4609375 C-38.96647844 3.6519284 -35.93368485 2.80773966 -31.2890625 2.1484375 C-30.37979004 2.01928955 -29.47051758 1.8901416 -28.53369141 1.75708008 C-27.09388916 1.56795044 -27.09388916 1.56795044 -25.625 1.375 C-24.6457959 1.24311279 -23.6665918 1.11122559 -22.65771484 0.9753418 C-15.05386123 0.00845362 -7.66742999 -0.35327749 0 0 Z " fill="#292929" transform="translate(680,242)"/>
<path d="M0 0 C2.89684158 -0.10829314 5.78961019 -0.18743954 8.6875 -0.25 C9.50412109 -0.28351563 10.32074219 -0.31703125 11.16210938 -0.3515625 C15.01853985 -0.41401482 17.36029507 -0.37217541 20.74609375 1.59765625 C23.47535626 4.50666222 25.96272434 7.51286832 28.375 10.6875 C29.33716897 11.93755435 30.29940862 13.18755431 31.26171875 14.4375 C31.72626465 15.04464844 32.19081055 15.65179688 32.66943359 16.27734375 C35.00869751 19.30593938 37.43534606 22.26624353 39.85546875 25.23046875 C41 27 41 27 41 30 C36.59374446 28.51483752 33.21546063 26.1054688 29.5625 23.3125 C19.62021916 15.85546911 9.29893577 8.95111123 -1 2 C-0.67 1.34 -0.34 0.68 0 0 Z " fill="#323232" transform="translate(577,131)"/>
<path d="M0 0 C0.66 0.33 1.32 0.66 2 1 C0.38405168 3.04119788 -1.2856382 5.04072937 -3 7 C-3.66 7 -4.32 7 -5 7 C-4.60196439 4.11424181 -4.20990931 3.17810487 -1.9375 1.25 C-1.298125 0.8375 -0.65875 0.425 0 0 Z " fill="#6D6D6D" transform="translate(291,233)"/>
</svg>
